<?xml version="1.0" encoding="UTF-8" standalone="no"?>
<!-- Created with Inkscape (http://www.inkscape.org/) -->

<svg
   version="1.1"
   id="svg824"
   width="500"
   height="500"
   viewBox="0 0 500 500"
   sodipodi:docname="Hello_Kitty_logo_pink.svg"
   inkscape:version="1.1 (c68e22c387, 2021-05-23)"
   xmlns:inkscape="http://www.inkscape.org/namespaces/inkscape"
   xmlns:sodipodi="http://sodipodi.sourceforge.net/DTD/sodipodi-0.dtd"
   xmlns="http://www.w3.org/2000/svg"
   xmlns:svg="http://www.w3.org/2000/svg">
  <defs
     id="defs828" />
  <sodipodi:namedview
     id="namedview826"
     pagecolor="#ffffff"
     bordercolor="#666666"
     borderopacity="1.0"
     inkscape:pageshadow="2"
     inkscape:pageopacity="0.0"
     inkscape:pagecheckerboard="0"
     showgrid="false"
     width="6077.6313px"
     inkscape:zoom="0.82437746"
     inkscape:cx="438.51272"
     inkscape:cy="459.13434"
     inkscape:window-width="1920"
     inkscape:window-height="1017"
     inkscape:window-x="-8"
     inkscape:window-y="-8"
     inkscape:window-maximized="1"
     inkscape:current-layer="g830" />
  <g
     inkscape:groupmode="layer"
     inkscape:label="Image"
     id="g830"
     transform="translate(1267.309,-1338.1086)">
    <path
       style="fill:#000000;stroke-width:0.108908"
       d="m -1017.5179,1767.5363 c -9.6703,-0.3186 -19.1936,-0.9587 -27.4992,-1.8485 -29.0323,-3.1103 -56.0708,-9.2581 -82.9875,-18.869 -3.2314,-1.1538 -9.1211,-3.3908 -11.8498,-4.5004 -8.8474,-3.5983 -18.1652,-8.8606 -27.4431,-15.4985 -3.3435,-2.3922 -8.4718,-6.3759 -11.0768,-8.6045 -1.0575,-0.9048 -1.7705,-1.2683 -2.6832,-1.3685 -1.3026,-0.1429 -3.6191,0.6087 -5.4721,1.7755 -2.4096,1.5173 -6.2976,3.7081 -13.5718,7.6476 -11.4563,6.2045 -15.3688,8.4288 -16.4516,9.3527 -0.8798,0.7507 -1.9715,1.378 -2.8769,1.6531 -0.6359,0.1932 -0.9747,0.2279 -1.8863,0.1932 -0.9631,-0.036 -1.2065,-0.087 -1.8258,-0.3781 -1.597,-0.7503 -2.6121,-2.4121 -2.6053,-4.2652 0.01,-1.2821 0.6196,-3.03 1.5731,-4.4722 0.9558,-1.4455 3.911,-3.8295 9.7006,-7.8258 4.4041,-3.0399 12.6416,-8.1645 17.2716,-10.745 1.6292,-0.9079 1.7021,-0.9363 2.6804,-1.0457 2.5245,-0.282 3.5229,-1.3344 2.8774,-3.0329 -0.2888,-0.7602 -0.7952,-1.4538 -1.9272,-2.6396 -3.7938,-3.9745 -8.7426,-12.116 -10.983,-18.0693 -0.9622,-2.5565 -2.3089,-3.853 -4.4577,-4.2914 -0.5004,-0.1022 -1.7347,-0.2015 -2.9948,-0.2409 l -2.1436,-0.067 -1.5059,0.4452 c -1.6996,0.5024 -3.8001,0.9315 -6.9888,1.4277 -4.452,0.6928 -6.8165,1.1174 -9.2028,1.6522 -2.182,0.489 -2.559,0.5446 -3.4416,0.5072 -0.8485,-0.036 -1.0946,-0.093 -1.7091,-0.3954 -1.2229,-0.602 -1.8193,-1.6275 -1.8193,-3.1276 0,-2.5281 2.0228,-4.9546 4.9008,-5.8785 0.3295,-0.1059 1.3816,-0.5831 2.3383,-1.0607 5.5952,-2.7935 10.3068,-4.5629 12.8484,-4.8247 0.6234,-0.064 1.0455,-0.2158 2.3987,-0.8616 2.2189,-1.0588 2.7803,-1.5759 2.7803,-2.5606 0,-0.5351 -0.3119,-1.4965 -0.8066,-2.4858 -1.9564,-3.9134 -5.0978,-17.1612 -5.5698,-23.4898 -0.061,-0.8175 -0.1366,-1.1058 -0.4569,-1.7425 -0.9139,-1.8171 -1.4914,-2.4709 -2.4227,-2.7428 -0.8522,-0.2489 -5.0488,-0.1411 -11.2186,0.2882 -2.6655,0.1855 -6.2431,0.4323 -7.9503,0.5485 -1.7071,0.1162 -3.8145,0.2597 -4.683,0.3189 -2.5694,0.1753 -5.0252,0.3204 -7.4602,0.4408 -1.2579,0.062 -2.6301,0.1309 -3.0493,0.1526 -0.4408,0.023 -1.1529,0.1679 -1.6881,0.3436 -0.8073,0.2653 -1.1,0.305 -2.2871,0.3099 -1.5113,0.01 -2.1477,-0.1634 -3.0432,-0.812 -1.5524,-1.1247 -1.7793,-3.516 -0.5177,-5.4562 0.7723,-1.1875 2.2561,-2.3344 3.8876,-3.0048 0.8003,-0.3289 2.3794,-0.7876 2.716,-0.7888 0.094,0 0.3171,-0.08 0.4968,-0.1759 1.116,-0.5985 2.0778,-1.0393 2.8962,-1.3274 2.4433,-0.8598 6.6906,-1.6642 12.4598,-2.3594 1.7969,-0.2167 4.2718,-0.5159 5.4998,-0.6649 2.5048,-0.3041 5.9557,-0.8526 6.5345,-1.0384 0.2096,-0.068 1.5573,-0.1598 2.9949,-0.2054 3.5104,-0.1113 4.6911,-0.401 5.2023,-1.2764 0.1915,-0.3279 0.1972,-0.4644 0.088,-2.1236 -0.1475,-2.2407 -0.1514,-9.8295 -0.01,-12.555 0.798,-15.006 4.055,-29.7211 9.7336,-43.9747 1.8431,-4.6265 4.3181,-9.9637 6.4091,-13.8211 0.5742,-1.0595 1.0789,-2.0397 1.1215,-2.1782 0.043,-0.1386 0.5893,-1.5016 1.2149,-3.0291 1.6731,-4.0852 1.9248,-5.1123 1.6679,-6.8067 -0.1987,-1.3099 -1.0297,-4.5829 -1.6313,-6.4256 -1.9225,-5.8865 -3.5871,-13.7455 -4.4063,-20.8013 -0.6182,-5.3236 -0.7699,-8.1824 -0.769,-14.4847 0,-6.2487 0.1702,-9.3941 0.7705,-14.3213 1.518,-12.4568 4.7168,-23.557 9.9803,-34.6326 0.6266,-1.3186 1.6497,-2.677 4.7578,-6.3167 6.8561,-8.0288 13.186,-11.2039 23.4925,-11.7837 2.2716,-0.1277 2.3222,-0.1258 4.084,0.1575 6.6967,1.0772 16.6681,4.0077 30.0456,8.8302 8.9735,3.235 19.868,7.6349 26.6998,10.7833 2.8128,1.2962 3.4098,1.6003 4.2753,2.1778 0.859,0.5732 1.9888,1.0694 3.2027,1.4066 0.7087,0.1967 1.1343,0.2325 2.7963,0.2344 2.6101,0 3.1042,-0.1043 8.8759,-1.928 3.2842,-1.0377 4.4682,-1.3061 8.0047,-1.8152 3.6443,-0.5245 11.0717,-1.3632 16.445,-1.8569 13.7318,-1.2616 25.2203,-1.8787 34.197,-1.8367 l 4.6831,0.022 0.5445,-0.659 c 0.2995,-0.3625 1.1539,-1.5344 1.8988,-2.604 3.1997,-4.5952 3.7128,-5.3165 5.1814,-7.2842 6.8919,-9.2335 13.7523,-15.5407 21.2902,-19.5735 3.36749,-1.8015 8.22697,-3.4382 12.19763,-4.1081 4.5997,-0.7761 9.44779,-0.8706 13.61346,-0.2654 10.31525,1.4987 20.19575,7.2249 29.01597,16.8163 2.67836,2.9125 5.5431,6.3549 6.40862,7.7009 0.85677,1.3324 1.67631,1.721 3.08291,1.4618 1.0076,-0.1857 5.73667,-1.9712 7.6693,-2.8956 12.0361,-5.7576 30.811,-11.1905 45.52336,-13.1732 5.45048,-0.7345 7.50561,-0.8804 12.36101,-0.8769 3.29125,0 4.46177,0.043 5.71765,0.1968 3.46083,0.425 6.04457,1.0991 7.24234,1.8894 2.83913,1.8733 5.2689,4.4762 7.8266,8.3844 5.93424,9.0675 10.8475,23.5077 13.01853,38.2615 0.63073,4.2865 0.93949,7.9329 1.04667,12.3611 0.10775,4.4517 0.31819,5.6712 1.25127,7.2511 0.62152,1.0525 1.72066,2.3662 2.68848,3.2134 2.58382,2.2617 4.42826,4.6778 6.16489,8.0754 2.40873,4.7124 3.83452,9.8789 4.3209,15.6571 0.14154,1.6817 0.14174,6.2652 0,7.9502 -0.66693,7.9463 -2.95494,15.5984 -7.13925,23.8767 -1.29373,2.5596 -1.52555,2.9471 -2.22271,3.7154 -1.46588,1.6156 -1.9614,2.6339 -1.9614,4.0307 0,1.0207 0.31137,1.9839 1.13142,3.5 3.23559,5.9816 6.76446,17.33 10.46659,33.6591 1.68902,7.4498 2.31128,10.6701 2.43986,12.6265 0.17408,2.6488 0.5025,3.6084 1.38032,4.0334 0.4368,0.2114 0.58421,0.2182 3.21994,0.1492 1.71728,-0.045 3.58619,-0.024 4.94035,0.054 2.49238,0.1458 9.14186,0.6066 11.16302,0.7737 5.00121,0.4132 14.33961,0.9747 16.25466,0.9773 0.7646,0 1.13084,0.063 1.85144,0.313 2.76196,0.9582 5.44627,2.8619 6.71934,4.7652 1.98366,2.9658 0.57399,5.1878 -3.75182,5.9138 -0.4193,0.07 -0.88487,0.1576 -1.03462,0.1938 -0.14975,0.036 -8.30965,0.097 -18.13311,0.134 -16.82866,0.064 -17.91103,0.08 -18.72946,0.2689 -2.10686,0.4869 -3.14588,1.3926 -3.69863,3.224 -0.12131,0.402 -0.21311,1.3158 -0.27897,2.7771 -0.1131,2.5091 -0.35757,5.2469 -1.03574,11.5987 -0.9265,8.6776 -0.93431,8.8018 -0.64248,10.2147 0.50625,2.4514 2.06311,3.8674 5.92545,5.3895 1.16932,0.4608 1.35725,0.5017 2.8316,0.6159 5.20099,0.4029 16.4845,2.983 21.54801,4.9273 0.63756,0.2448 1.47467,0.5597 1.86022,0.6996 0.92633,0.3362 1.70736,1.1004 2.26406,2.2153 0.38887,0.7786 0.41106,0.8791 0.41106,1.8578 0,0.929 -0.0301,1.0859 -0.29534,1.537 -0.3846,0.6542 -0.90621,1.1029 -1.80635,1.5538 -3.68618,1.8466 -13.4051,1.4198 -27.28885,-1.1984 -2.02604,-0.382 -2.07398,-0.3857 -3.43059,-0.2703 -3.58322,0.305 -5.42702,1.4153 -7.1533,4.3082 -0.42933,0.7195 -0.66243,1.2603 -0.81058,1.8805 -0.63947,2.6773 -3.95964,10.82 -7.38402,18.1091 -0.60501,1.2879 -1.1593,2.5649 -1.23176,2.838 -0.28509,1.0745 0.13001,1.5234 2.58972,2.8003 2.13282,1.1074 3.97879,2.1083 8.58452,4.6548 5.98944,3.3114 11.83172,6.4602 15.13816,8.1587 3.02782,1.5556 4.51394,2.5431 5.82655,3.8717 1.63731,1.6573 2.29797,2.9623 2.37197,4.6856 0.0546,1.2705 -0.18117,2.0072 -0.89686,2.8032 -0.8898,0.9897 -2.1131,1.4442 -3.88684,1.4442 -1.38087,0 -2.0873,-0.1584 -4.77617,-1.071 -9.31095,-3.1604 -20.40913,-7.863 -24.71343,-10.4718 -0.72086,-0.4369 -1.42258,-0.752 -2.27091,-1.0198 -4.02172,-1.2695 -6.22667,-1.2856 -9.00884,-0.065 -0.94061,0.4125 -1.04385,0.4896 -1.42456,1.0637 -1.27368,1.9209 -4.16129,5.6346 -6.21472,7.9927 -1.6091,1.8478 -6.49372,6.7059 -8.53426,8.4878 -6.86832,5.9976 -14.07311,11.0244 -22.81613,15.9189 -11.06803,6.196 -21.23765,10.2778 -36.10286,14.4905 -9.1494,2.5929 -22.59905,5.5116 -32.4,7.0309 -16.01475,2.4827 -29.21998,3.7055 -45.95902,4.2558 -3.73327,0.1227 -17.35957,0.1169 -21.18247,-0.01 z m 25.64774,-16.8645 c 4.06082,-0.1615 9.11206,-0.424 11.76198,-0.6113 23.54618,-1.6641 44.48255,-5.4015 63.21329,-11.2846 21.29018,-6.6869 41.21792,-18.0678 53.48809,-30.5474 1.79316,-1.8238 3.36647,-3.6235 4.07864,-4.6657 0.4918,-0.7197 0.74465,-1.6866 0.59064,-2.2586 -0.13816,-0.513 -0.71373,-1.1724 -1.34752,-1.5439 -0.25793,-0.1512 -1.02665,-0.502 -1.70823,-0.7797 -2.10148,-0.8561 -2.4304,-1.0681 -3.81554,-2.4598 -2.53821,-2.5502 -2.67207,-3.1 -1.39752,-5.7411 0.73105,-1.5148 1.24577,-2.1494 2.0968,-2.5853 1.36081,-0.6969 2.80668,-0.7772 7.10455,-0.3944 3.74852,0.3338 6.70561,0.5029 7.69105,0.4396 1.88168,-0.1208 3.23183,-1.2689 4.11925,-3.5029 0.17909,-0.4508 0.95605,-2.0354 1.72659,-3.5214 5.84193,-11.266 7.96292,-17.6607 6.41265,-19.3335 -0.24142,-0.2604 -0.31939,-0.2735 -2.09543,-0.3499 -3.75823,-0.1619 -5.98332,-0.8471 -8.16134,-2.5135 -1.21214,-0.9275 -1.55426,-1.3368 -1.87351,-2.2414 -0.3516,-0.9964 -0.39825,-2.3071 -0.10591,-2.9762 0.46227,-1.0579 1.64358,-2.1623 3.28631,-3.0722 l 0.76236,-0.4223 5.60873,-0.063 c 4.01531,-0.045 5.72696,-0.1012 6.02486,-0.1979 1.01081,-0.3283 1.66017,-1.3546 1.77854,-2.8113 0.0379,-0.4669 0.1631,-1.0913 0.27816,-1.3877 0.58657,-1.5107 1.05838,-4.3486 1.34081,-8.0649 0.20788,-2.735 0.38085,-11.6003 0.2517,-12.8996 -0.14949,-1.5038 -0.59742,-2.1685 -1.7526,-2.6006 -0.70888,-0.2654 -2.50181,-0.4547 -4.30427,-0.4547 h -1.35474 l -2.19306,0.7129 c -6.07453,1.9744 -9.96517,2.4038 -13.69563,1.5118 -1.31824,-0.3152 -1.92957,-0.6479 -2.5243,-1.3736 -1.35282,-1.651 -1.51887,-4.0869 -0.42615,-6.2513 0.89559,-1.774 2.48357,-3.0073 4.97564,-3.8643 0.48052,-0.1652 1.29902,-0.4497 1.81892,-0.6322 1.4551,-0.5108 4.01797,-0.9652 9.61877,-1.705 2.90001,-0.3832 5.75694,-0.9203 7.26182,-1.3655 0.83915,-0.2482 1.10468,-0.5066 1.66569,-1.6206 1.07965,-2.1439 1.19468,-4.0787 0.53777,-9.0451 -1.00615,-7.607 -3.59003,-18.4989 -5.70674,-24.056 -1.17502,-3.0847 -1.67491,-3.9685 -2.91226,-5.1488 -1.64584,-1.5698 -2.74289,-1.5369 -5.26773,0.1582 -0.74285,0.4987 -1.66921,1.0982 -2.05856,1.3322 -0.38935,0.234 -1.31186,0.924 -2.05004,1.5335 -2.34245,1.9338 -5.80638,4.376 -8.35062,5.8875 -7.76678,4.614 -15.98993,7.2939 -24.19604,7.8856 -2.82533,0.2037 -4.33123,0.1044 -6.40699,-0.4223 -10.90844,-2.7683 -20.6226,-9.9615 -29.02085,-21.4895 -2.26186,-3.1047 -4.29069,-6.2778 -5.1776,-8.0978 -1.54483,-3.17 -2.31863,-3.6238 -6.58743,-3.8638 -3.10414,-0.1744 -4.85138,-0.5029 -7.7513,-1.4572 -6.25336,-2.0578 -12.92563,-6.0418 -17.44818,-10.4183 -2.17351,-2.1032 -3.83789,-4.2944 -4.76975,-6.2793 -0.48012,-1.0229 -1.67706,-2.6272 -2.4045,-3.2229 -0.86127,-0.7054 -1.54868,-0.9876 -2.53115,-1.039 -1.5115,-0.079 -2.95227,0.3714 -8.26966,2.586 -5.80555,2.4179 -12.9383,3.9467 -19.96665,4.2796 -8.61295,0.408 -17.04105,-1.1863 -24.45555,-4.6261 -3.7681,-1.7482 -9.5093,-6.799 -13.2178,-11.6283 -4.2629,-5.5514 -7.2178,-12.3837 -8.576,-19.8293 -0.6279,-3.4426 -0.7586,-5.1354 -0.7642,-9.9026 -0.01,-4.6113 0.055,-5.6554 0.545,-9.3115 0.6768,-5.0569 1.7832,-9.6513 3.6376,-15.1041 1.1352,-3.3382 1.4572,-4.6406 1.4674,-5.9363 0.01,-0.6594 -0.038,-1.0476 -0.1267,-1.1366 -0.3194,-0.3207 -24.0458,1.3717 -36.1316,2.5774 -9.0751,0.9052 -13.6049,1.6118 -17.534,2.7351 -4.3311,1.238 -7.4075,1.9791 -10.6186,2.5578 -1.1028,0.1988 -1.7748,0.2465 -3.5394,0.2514 l -2.1782,0.01 -2.9405,-1.456 c -6.8441,-3.3891 -15.3985,-7.2853 -22.2172,-10.1189 -15.4759,-6.4315 -27.1966,-10.0395 -36.2118,-11.1472 -1.787,-0.2196 -5.9113,-0.1874 -7.2371,0.056 -2.6815,0.4933 -4.0796,1.2444 -5.9483,3.1956 -5.4205,5.66 -10.68,16.5979 -13.3875,27.8406 -2.9165,12.1111 -2.9702,24.0734 -0.1562,34.8112 1.4824,5.6564 2.8623,8.3912 4.0132,7.9536 0.1551,-0.059 0.7104,-0.393 1.2344,-0.7423 0.5239,-0.3493 1.2465,-0.7985 1.6059,-0.9983 0.3595,-0.1998 0.8495,-0.5307 1.0891,-0.7353 0.2396,-0.2047 0.7493,-0.5265 1.1325,-0.7152 0.591,-0.291 0.8479,-0.3497 1.6918,-0.3865 0.851,-0.037 1.108,-0.01 1.7771,0.2284 1.4817,0.5154 2.6621,1.5738 3.4975,3.1364 0.8053,1.5062 1.1242,3.3061 0.8332,4.7018 -0.3327,1.5961 -1.7318,3.9985 -4.2335,7.2697 -4.5468,5.9454 -4.6738,6.1321 -6.9266,10.1846 -9.1874,16.5262 -16.6279,37.6364 -19.4997,55.3233 -0.881,5.4257 -1.1784,8.5496 -1.3063,13.7223 -0.054,2.1564 -0.1321,5.2297 -0.1748,6.8295 -0.069,2.6133 -0.058,2.9823 0.1182,3.6326 0.3709,1.3702 1.3064,1.9491 3.4328,2.1244 0.629,0.052 2.4913,0.1455 4.1385,0.2081 3.29,0.1252 5.02,0.283 8.3859,0.7655 5.1856,0.7434 9.2199,1.8523 10.4097,2.8613 0.4975,0.4219 0.9842,1.428 1.195,2.4705 0.5234,2.5871 -0.4921,5.4289 -2.3902,6.6888 l -0.5933,0.3938 h -8.8574 c -7.4313,0 -9.0417,-0.029 -10.0011,-0.1709 -2.2031,-0.3254 -2.5113,-0.3522 -2.8793,-0.2507 -0.7739,0.2137 -1.0466,1.2582 -0.8454,3.2377 0.3111,3.0605 1.9944,10.0004 4.2139,17.3738 1.2391,4.1158 1.2914,4.257 1.7913,4.8249 0.25,0.284 0.6828,0.8861 0.9616,1.338 0.7366,1.1938 1.0069,1.5086 1.5025,1.7498 0.4247,0.2067 0.6846,0.2154 6.3711,0.2141 4.8812,0 6.0341,-0.03 6.5272,-0.162 0.8457,-0.227 2.4006,-0.2087 3.2928,0.039 1.4531,0.4029 3.0185,1.6569 3.6316,2.9093 0.4058,0.8288 0.4918,1.981 0.1883,2.5206 -0.8855,1.5744 -6.2164,3.6588 -10.3798,4.0585 -1.2023,0.1154 -1.3125,0.1482 -2.7485,0.8174 -2.589,1.2064 -2.959,1.5703 -2.8818,2.8333 0.055,0.8779 0.4081,1.7709 0.9845,2.481 0.4864,0.5991 0.9374,1.3506 2.6284,4.3801 1.9788,3.5452 2.973,5.2018 4.2709,7.1155 1.9993,2.948 3.7184,4.9582 4.6386,5.4246 0.3032,0.1536 1.1513,0.6877 1.8846,1.1867 0.7658,0.5212 1.5688,0.9773 1.8866,1.0717 0.7912,0.235 1.6023,0.074 3.206,-0.6351 3.3838,-1.4969 6.5488,-2.4987 10.8913,-3.4474 1.2979,-0.2836 3.0871,-0.3798 4.0536,-0.218 2.4098,0.4033 4.1232,1.5767 4.5758,3.1333 0.2224,0.7652 0.1371,1.3727 -0.2867,2.041 -0.193,0.3045 -0.3221,0.6555 -0.3221,0.8758 0,0.2022 -0.089,0.6538 -0.1985,1.0035 -0.6997,2.2413 -2.9946,3.7335 -6.2659,4.0741 l -1.0735,0.1118 -1.2129,1.0567 c -1.838,1.6013 -2.249,2.1266 -2.249,2.8753 0,0.4964 0.4439,1.0474 1.1859,1.4722 0.2762,0.1581 0.7963,0.54 1.1557,0.8484 12.9616,11.1241 34.3342,20.7202 61.5872,27.6522 10.196,2.5934 23.7907,5.3506 35.1772,7.1343 16.9858,2.6611 33.8041,4.2043 51.1321,4.6917 4.0226,0.1132 19.04467,0.046 22.76164,-0.1019 z m -27.88024,-55.1833 c -0.1797,-0.02 -0.9149,-0.091 -1.6337,-0.1577 -9.6295,-0.8927 -16.6277,-5.3476 -19.1474,-12.1887 -1.0732,-2.9139 -1.3791,-7.1758 -0.684,-9.5295 1.0667,-3.6111 3.7601,-6.6157 7.804,-8.7051 3.0436,-1.5726 6.432,-2.5293 10.8838,-3.0729 1.9906,-0.243 7.4506,-0.2785 9.0395,-0.059 1.4208,0.1966 4.3041,0.9166 5.5542,1.3869 5.6516,2.1267 9.95336,5.7709 12.20668,10.3408 1.78362,3.6177 1.7069,7.3342 -0.22945,11.1029 -3.5884,6.9843 -11.58463,11.0187 -21.67003,10.9336 -0.9883,-0.01 -1.944,-0.032 -2.1236,-0.052 z m 6.9006,-9.6709 c 4.7529,-0.7105 6.8846,-2.7513 7.0602,-6.7595 0.064,-1.4677 -0.086,-2.3547 -0.5774,-3.3919 -1.4322,-3.0275 -5.6701,-4.6123 -12.3349,-4.6128 -3.5308,0 -5.7995,0.4564 -8.0187,1.6139 -1.0743,0.5603 -2.4138,1.901 -2.8763,2.8789 -0.6759,1.4287 -0.8409,3.1627 -0.4477,4.7005 0.3035,1.187 0.6896,1.8464 1.6338,2.7914 1.6454,1.6464 4.1086,2.5131 8.3336,2.9325 1.4299,0.1419 5.8853,0.047 7.2274,-0.153 z m -111.9965,-20.2723 c -2.1573,-0.3023 -2.8418,-0.4808 -4.2474,-1.1074 -4.0759,-1.8172 -6.7301,-6.0076 -7.344,-11.5951 -0.1471,-1.3387 -0.15,-4.8539 -0.01,-6.6863 0.7217,-9.154 3.358,-14.8749 7.917,-17.1806 2.477,-1.2529 6.1984,-1.4946 9.4621,-0.6148 4.6448,1.2522 8.0072,5.0187 9.6246,10.7823 0.7483,2.6662 1.1972,6.1952 1.2004,9.4362 0,4.0384 -1.1122,8.0174 -3.0699,10.9441 -2.5844,3.8639 -6.4678,5.8941 -11.5226,6.0241 -0.9285,0.024 -1.8351,0.023 -2.0148,0 z m 202.5136,-2.2262 c -8.0065,-0.7861 -13.09118,-5.8512 -14.42948,-14.3741 -0.2328,-1.4824 -0.37655,-4.7961 -0.25856,-5.9601 0.38039,-3.7527 2.02486,-7.7664 4.303,-10.5023 2.99833,-3.6007 7.11703,-5.2655 12.10498,-4.8929 3.50449,0.2617 5.96014,1.137 8.1857,2.9176 3.61868,2.8954 5.55748,8.4444 5.55896,15.91 0.002,6.4377 -2.73618,12.3122 -7.02653,15.0787 -2.53474,1.6345 -4.97955,2.1626 -8.43807,1.8231 z m 33.38015,-182.6959 c 3.55418,-1.1418 5.92366,-1.7354 10.0195,-2.5107 8.90963,-1.6862 18.13482,-2.5627 23.49961,-2.2329 2.31563,0.1425 3.17268,0.2614 4.54409,0.6309 1.80373,0.4859 2.74782,0.3776 3.23848,-0.3712 0.49161,-0.7503 0.10669,-4.9512 -1.11541,-12.1738 -2.15011,-12.7068 -5.15282,-21.0028 -9.42222,-26.0315 -1.87667,-2.2107 -4.31212,-3.8486 -6.7849,-4.5634 -2.39745,-0.6931 -8.31608,-0.9705 -12.05377,-0.5652 -10.12281,1.0981 -22.27294,5.1856 -42.41948,14.2707 -1.8131,0.8176 -1.86799,0.8523 -2.65049,1.6743 -0.97407,1.0233 -1.66369,2.0399 -2.05694,3.0326 -0.26738,0.6749 -0.29571,0.879 -0.29278,2.1086 0.004,1.5252 0.14918,2.2559 0.96544,4.8463 0.60657,1.9251 0.84295,2.8784 1.19323,4.8119 0.15388,0.8496 0.38498,1.8258 0.51353,2.1693 0.61864,1.6536 2.42206,2.7341 5.54077,3.32 4.46271,0.8383 8.51743,2.1261 11.68676,3.7116 2.97078,1.4864 5.22351,3.1058 7.85149,5.6446 2.83346,2.7372 3.21163,2.9654 4.80259,2.8988 0.82804,-0.034 1.28443,-0.1389 2.9405,-0.6709 z"
       id="path1202" />
  </g>
</svg>
